<?xml version="1.0" encoding="UTF-8"?>
<svg id="Capa_1" data-name="Capa 1" xmlns="http://www.w3.org/2000/svg" viewBox="0 0 2189.87 510.59">
  <path d="m0,310.86V0h448.92v89.81H89.81v131.25h331.59v89.81H0Z"/>
  <path d="m442.12,310.86V0h89.81v110.53h241.78V0h89.81v310.86h-89.81v-110.53h-241.78v110.53h-89.81Z"/>
  <path d="m884.24,310.86V0h421.39v310.86h-89.81v-110.53h-241.78v110.53h-89.81Zm331.59-200.33v-20.72h-241.78v20.72h241.78Z"/>
  <path d="m1326.35,310.86V0h421.39v310.86h-421.39Zm331.59-89.81V89.81h-241.78v131.25h241.78Z"/>
  <path d="m1731.81,310.86l4.67-89.81h363.58v-20.72h-331.59V0h421.39v89.81h-331.59v20.72h331.59v200.33h-458.05Z"/>
  <g>
    <path d="m.11,510.59v-147.29h216.96v42.55H42.66v62.19h157.11v42.55H.11Z"/>
    <path d="m209.59,510.59v-147.29h42.55v52.37h114.56v-52.37h42.55v147.29h-42.55v-52.37h-114.56v52.37h-42.55Z"/>
    <path d="m419.07,510.59v-147.29h199.66v147.29h-42.55v-52.37h-114.56v52.37h-42.55Zm157.11-94.92v-9.82h-114.56v9.82h114.56Z"/>
    <path d="m628.56,510.59v-147.29h199.66v147.29h-42.55v-104.74h-36.01v104.74h-42.55v-104.74h-36.01v104.74h-42.55Z"/>
    <path d="m838.04,510.59v-147.29h199.66v94.92h-157.11v52.37h-42.55Zm157.11-94.92v-9.82h-114.56v9.82h114.56Z"/>
    <path d="m1047.52,510.59v-147.29h42.55v147.29h-42.55Z"/>
    <path d="m1099.9,510.59v-147.29h199.66v147.29h-199.66Zm157.11-42.55v-62.19h-114.56v62.19h114.56Z"/>
    <path d="m1309.38,510.59v-147.29h199.66v147.29h-42.55v-104.74h-114.56v104.74h-42.55Z"/>
    <path d="m1504.48,510.59v-42.55h171.5v-9.82h-157.11v-94.92h217.91v42.55h-175.36v9.82h157.11v94.92h-214.05Z"/>
    <path d="m1728.35,510.59v-147.29h42.55v52.37h114.56v-52.37h42.55v147.29h-42.55v-52.37h-114.56v52.37h-42.55Z"/>
    <path d="m1937.83,510.59v-147.29h42.55v147.29h-42.55Z"/>
    <path d="m1990.2,510.59v-147.29h199.66v94.92h-157.11v52.37h-42.55Zm157.11-94.92v-9.82h-114.56v9.82h114.56Z"/>
  </g>
</svg>