
        <svg xmlns="http://www.w3.org/2000/svg" xmlns:xlink="http://www.w3.org/1999/xlink" version="1.1" width="3086.48199514557" 
        height="3166.8368646024633" viewBox="0 0 3086.48199514557 3166.8368646024633">
			
			<g transform="scale(8.341843230123162) translate(10, 10)">
				<defs id="SvgjsDefs26609"></defs><g id="SvgjsG26610" featureKey="MI9fam-0" transform="matrix(2.777660617017848,0,0,2.777660617017848,36.34328669996018,-27.776770407161067)" fill="#cb6bff"><rect xmlns="http://www.w3.org/2000/svg" x="25.249" y="20.252" transform="matrix(0.7071 0.7071 -0.7071 0.7071 46.463 -22.1737)" fill="none" stroke="#cb6bff" stroke-width="2" stroke-linecap="round" stroke-linejoin="round" stroke-miterlimit="10" width="49.499" height="49.497"></rect><path xmlns="http://www.w3.org/2000/svg" stroke="#cb6bff" stroke-width="2" stroke-linecap="round" stroke-linejoin="round" stroke-miterlimit="10" d="M49.999,69.395  l24.394-24.392L50,20.608L25.608,45.002L49.999,69.395z M63.785,45.002L49.999,58.787L36.214,45.002L50,31.215L63.785,45.002z"></path><rect xmlns="http://www.w3.org/2000/svg" x="47.754" y="42.754" transform="matrix(-0.707 0.7072 -0.7072 -0.707 117.1804 41.4576)" stroke="#cb6bff" stroke-width="2" stroke-linecap="round" stroke-linejoin="round" stroke-miterlimit="10" width="4.496" height="4.497"></rect><polygon xmlns="http://www.w3.org/2000/svg" stroke="#cb6bff" stroke-width="2" stroke-linecap="round" stroke-linejoin="round" stroke-miterlimit="10" points="  49.999,80 20,50.004 15.002,55 49.999,90 85,55 80,50 "></polygon></g><g id="SvgjsG26611" featureKey="EI8VXn-0" transform="matrix(5.1698672936068375,0,0,5.1698672936068375,-5.1698672936068375,211.91137146374166)" fill="#ffffff"><path d="M7.92 20.28 q-3.38 0 -5.15 -1.88 t-1.77 -5.34 q0 -1.72 0.54 -3.07 t1.48 -2.28 t2.24 -1.41 t2.82 -0.48 q0.88 0 1.6 0.13 t1.26 0.3 t0.9 0.35 t0.52 0.28 l-0.9 2.52 q-0.64 -0.34 -1.49 -0.58 t-1.93 -0.24 q-0.72 0 -1.41 0.24 t-1.22 0.77 t-0.85 1.37 t-0.32 2.04 q0 0.96 0.21 1.79 t0.68 1.43 t1.23 0.95 t1.84 0.35 q0.68 0 1.22 -0.08 t0.96 -0.19 t0.74 -0.25 t0.58 -0.26 l0.86 2.5 q-0.66 0.4 -1.86 0.72 t-2.78 0.32 z M22.92 6.140000000000001 l3.12 0 l0 13.86 l-3.12 0 l0 -5.88 l-5.24 0 l0 5.88 l-3.12 0 l0 -13.86 l3.12 0 l0 5.3 l5.24 0 l0 -5.3 z M38.52 20 q-0.22 -0.72 -0.49 -1.48 t-0.53 -1.52 l-5.4 0 q-0.26 0.76 -0.53 1.52 t-0.49 1.48 l-3.24 0 q0.78 -2.24 1.48 -4.14 t1.37 -3.58 t1.32 -3.19 t1.35 -2.95 l2.98 0 q0.68 1.44 1.34 2.95 t1.33 3.19 t1.37 3.58 t1.48 4.14 l-3.34 0 z M34.78 9.28 q-0.1 0.3 -0.3 0.82 t-0.46 1.2 t-0.57 1.5 t-0.63 1.72 l3.94 0 q-0.32 -0.9 -0.62 -1.72 t-0.57 -1.5 t-0.47 -1.2 t-0.32 -0.82 z M46.28 13.059999999999999 q0 1.02 0.25 1.84 t0.72 1.41 t1.15 0.91 t1.56 0.32 q0.86 0 1.55 -0.32 t1.16 -0.91 t0.72 -1.41 t0.25 -1.84 t-0.25 -1.85 t-0.72 -1.42 t-1.16 -0.91 t-1.55 -0.32 q-0.88 0 -1.56 0.33 t-1.15 0.92 t-0.72 1.42 t-0.25 1.83 z M56.86 13.059999999999999 q0 1.78 -0.53 3.13 t-1.45 2.26 t-2.19 1.37 t-2.73 0.46 q-1.42 0 -2.68 -0.46 t-2.2 -1.37 t-1.48 -2.26 t-0.54 -3.13 t0.56 -3.13 t1.51 -2.27 t2.2 -1.38 t2.63 -0.46 q1.42 0 2.68 0.46 t2.2 1.38 t1.48 2.27 t0.54 3.13 z M63.24 17.62 q0.66 0 1.09 -0.11 t0.69 -0.3 t0.36 -0.45 t0.1 -0.58 q0 -0.68 -0.64 -1.13 t-2.2 -0.97 q-0.68 -0.24 -1.36 -0.55 t-1.22 -0.78 t-0.88 -1.14 t-0.34 -1.63 t0.36 -1.73 t1.02 -1.31 t1.6 -0.83 t2.12 -0.29 q1.4 0 2.42 0.3 t1.68 0.66 l-0.9 2.46 q-0.58 -0.3 -1.29 -0.53 t-1.71 -0.23 q-1.12 0 -1.61 0.31 t-0.49 0.95 q0 0.38 0.18 0.64 t0.51 0.47 t0.76 0.38 t0.95 0.35 q1.08 0.4 1.88 0.79 t1.33 0.91 t0.79 1.22 t0.26 1.7 q0 1.94 -1.36 3.01 t-4.1 1.07 q-0.92 0 -1.66 -0.11 t-1.31 -0.27 t-0.98 -0.34 t-0.69 -0.34 l0.88 -2.48 q0.62 0.34 1.53 0.61 t2.23 0.27 z"></path></g><g id="SvgjsG26612" featureKey="EI8VXn-1" transform="matrix(2.273613059953143,0,0,2.273613059953143,-2.273613059953143,313.76757160078114)" fill="#ffffff"><path d="M7.92 20.28 q-3.38 0 -5.15 -1.88 t-1.77 -5.34 q0 -1.72 0.54 -3.07 t1.48 -2.28 t2.24 -1.41 t2.82 -0.48 q0.88 0 1.6 0.13 t1.26 0.3 t0.9 0.35 t0.52 0.28 l-0.9 2.52 q-0.64 -0.34 -1.49 -0.58 t-1.93 -0.24 q-0.72 0 -1.41 0.24 t-1.22 0.77 t-0.85 1.37 t-0.32 2.04 q0 0.96 0.21 1.79 t0.68 1.43 t1.23 0.95 t1.84 0.35 q0.68 0 1.22 -0.08 t0.96 -0.19 t0.74 -0.25 t0.58 -0.26 l0.86 2.5 q-0.66 0.4 -1.86 0.72 t-2.78 0.32 z M22.92 6.140000000000001 l3.12 0 l0 13.86 l-3.12 0 l0 -5.88 l-5.24 0 l0 5.88 l-3.12 0 l0 -13.86 l3.12 0 l0 5.3 l5.24 0 l0 -5.3 z M38.52 20 q-0.22 -0.72 -0.49 -1.48 t-0.53 -1.52 l-5.4 0 q-0.26 0.76 -0.53 1.52 t-0.49 1.48 l-3.24 0 q0.78 -2.24 1.48 -4.14 t1.37 -3.58 t1.32 -3.19 t1.35 -2.95 l2.98 0 q0.68 1.44 1.34 2.95 t1.33 3.19 t1.37 3.58 t1.48 4.14 l-3.34 0 z M34.78 9.28 q-0.1 0.3 -0.3 0.82 t-0.46 1.2 t-0.57 1.5 t-0.63 1.72 l3.94 0 q-0.32 -0.9 -0.62 -1.72 t-0.57 -1.5 t-0.47 -1.2 t-0.32 -0.82 z M47.34 6.140000000000001 q0.36 0.66 0.83 1.63 t0.98 2.1 t1.01 2.31 t0.94 2.22 q0.44 -1.04 0.94 -2.22 t1.01 -2.31 t0.98 -2.1 t0.83 -1.63 l2.84 0 q0.2 1.38 0.37 3.09 t0.3 3.56 t0.24 3.71 t0.19 3.5 l-3.04 0 q-0.06 -2.02 -0.16 -4.4 t-0.3 -4.8 q-0.36 0.84 -0.8 1.86 t-0.87 2.04 t-0.83 1.95 t-0.68 1.59 l-2.18 0 q-0.28 -0.66 -0.68 -1.59 t-0.83 -1.95 t-0.87 -2.04 t-0.8 -1.86 q-0.2 2.42 -0.3 4.8 t-0.16 4.4 l-3.04 0 q0.08 -1.64 0.19 -3.5 t0.24 -3.71 t0.3 -3.56 t0.37 -3.09 l2.98 0 z M65.76 5.98 q3.1 0 4.76 1.09 t1.66 3.57 q0 2.5 -1.68 3.61 t-4.8 1.11 l-0.98 0 l0 4.64 l-3.12 0 l0 -13.66 q1.02 -0.2 2.16 -0.28 t2 -0.08 z M65.96 8.64 q-0.34 0 -0.67 0.02 t-0.57 0.04 l0 4 l0.98 0 q1.62 0 2.44 -0.44 t0.82 -1.64 q0 -0.58 -0.21 -0.96 t-0.6 -0.61 t-0.95 -0.32 t-1.24 -0.09 z M74.47999999999999 6.140000000000001 l3.12 0 l0 13.86 l-3.12 0 l0 -13.86 z M83.41999999999999 13.059999999999999 q0 1.02 0.25 1.84 t0.72 1.41 t1.15 0.91 t1.56 0.32 q0.86 0 1.55 -0.32 t1.16 -0.91 t0.72 -1.41 t0.25 -1.84 t-0.25 -1.85 t-0.72 -1.42 t-1.16 -0.91 t-1.55 -0.32 q-0.88 0 -1.56 0.33 t-1.15 0.92 t-0.72 1.42 t-0.25 1.83 z M93.99999999999999 13.059999999999999 q0 1.78 -0.53 3.13 t-1.45 2.26 t-2.19 1.37 t-2.73 0.46 q-1.42 0 -2.68 -0.46 t-2.2 -1.37 t-1.48 -2.26 t-0.54 -3.13 t0.56 -3.13 t1.51 -2.27 t2.2 -1.38 t2.63 -0.46 q1.42 0 2.68 0.46 t2.2 1.38 t1.48 2.27 t0.54 3.13 z M105.89999999999999 20 q-1.34 -2.38 -2.9 -4.7 t-3.32 -4.38 l0 9.08 l-3.08 0 l0 -13.86 l2.54 0 q0.66 0.66 1.46 1.62 t1.63 2.05 t1.65 2.26 t1.54 2.25 l0 -8.18 l3.1 0 l0 13.86 l-2.62 0 z M115.49999999999999 17.62 q0.66 0 1.09 -0.11 t0.69 -0.3 t0.36 -0.45 t0.1 -0.58 q0 -0.68 -0.64 -1.13 t-2.2 -0.97 q-0.68 -0.24 -1.36 -0.55 t-1.22 -0.78 t-0.88 -1.14 t-0.34 -1.63 t0.36 -1.73 t1.02 -1.31 t1.6 -0.83 t2.12 -0.29 q1.4 0 2.42 0.3 t1.68 0.66 l-0.9 2.46 q-0.58 -0.3 -1.29 -0.53 t-1.71 -0.23 q-1.12 0 -1.61 0.31 t-0.49 0.95 q0 0.38 0.18 0.64 t0.51 0.47 t0.76 0.38 t0.95 0.35 q1.08 0.4 1.88 0.79 t1.33 0.91 t0.79 1.22 t0.26 1.7 q0 1.94 -1.36 3.01 t-4.1 1.07 q-0.92 0 -1.66 -0.11 t-1.31 -0.27 t-0.98 -0.34 t-0.69 -0.34 l0.88 -2.48 q0.62 0.34 1.53 0.61 t2.23 0.27 z M131.72 6.140000000000001 l3.12 0 l0 13.86 l-3.12 0 l0 -5.88 l-5.24 0 l0 5.88 l-3.12 0 l0 -13.86 l3.12 0 l0 5.3 l5.24 0 l0 -5.3 z M138.04 6.140000000000001 l3.12 0 l0 13.86 l-3.12 0 l0 -13.86 z M148.51999999999998 5.98 q3.1 0 4.76 1.09 t1.66 3.57 q0 2.5 -1.68 3.61 t-4.8 1.11 l-0.98 0 l0 4.64 l-3.12 0 l0 -13.66 q1.02 -0.2 2.16 -0.28 t2 -0.08 z M148.72 8.64 q-0.34 0 -0.67 0.02 t-0.57 0.04 l0 4 l0.98 0 q1.62 0 2.44 -0.44 t0.82 -1.64 q0 -0.58 -0.21 -0.96 t-0.6 -0.61 t-0.95 -0.32 t-1.24 -0.09 z"></path></g>
			</g>
		</svg>
	